<svg xmlns="http://www.w3.org/2000/svg" width="30" height="30" viewBox="0 0 30 30">
  <title>about-icon</title>
  <g>
    <polygon points="2 2 12 2 12 0 0 0 0 12 2 12 2 2"/>
    <polygon points="28 28 18 28 18 30 30 30 30 18 28 18 28 28"/>
    <polygon points="18 0 18 2 28 2 28 12 30 12 30 0 18 0"/>
    <polygon points="2 18 0 18 0 30 12 30 12 28 2 28 2 18"/>
    <polygon points="19 19 20 19 20 18 19 18 18 18 17 18 16 18 15 18 14 18 13 18 13 19 13 20 13 21 13 22 13 23 13 24 14 24 15 24 15 25 14 25 13 25 12 25 11 25 10 25 9 25 8 25 7 25 7 24 8 24 9 24 9 23 9 22 9 20 9 19 9 18 9 17 9 16 9 15 9 14 9 13 9 12 9 11 9 10 9 9 9 8 9 7 9 6 8 6 7 6 7 5 8 5 9 5 10 5 11 5 12 5 13 5 14 5 15 5 16 5 17 5 18 5 19 5 20 5 20 4 19 4 18 4 17 4 16 4 15 4 14 4 13 4 12 4 11 4 10 4 9 4 8 4 7 4 6 4 6 5 6 6 6 7 7 7 8 7 8 8 8 9 8 10 8 11 8 12 8 13 8 14 8 15 8 16 8 17 8 18 8 19 8 20 8 22 8 23 7 23 6 23 6 24 6 25 6 26 7 26 8 26 9 26 10 26 11 26 12 26 13 26 14 26 15 26 16 26 16 25 16 24 16 23 15 23 14 23 14 22 14 21 14 20 14 19 15 19 16 19 17 19 18 19 19 19"/>
    <polygon points="21 6 22 6 22 5 21 5 20 5 20 6 21 6"/>
    <polygon points="22 16 22 17 23 17 23 16 23 15 22 15 22 16"/>
    <polygon points="18 9 18 10 18 11 18 12 18 13 18 14 18 15 19 15 19 14 19 13 19 12 19 11 19 10 19 9 19 8 18 8 18 9"/>
    <rect x="17" y="15" width="1" height="1"/>
    <polygon points="20 17 20 18 21 18 22 18 22 17 21 17 20 17"/>
    <rect x="17" y="7" width="1" height="1"/>
    <polygon points="22 8 23 8 23 7 23 6 22 6 22 7 22 8"/>
    <polygon points="15 16 14 16 14 15 14 14 14 13 14 12 14 11 14 10 14 9 14 8 14 7 15 7 16 7 17 7 17 6 16 6 15 6 14 6 13 6 13 7 13 8 13 9 13 10 13 11 13 12 13 13 13 14 13 15 13 16 13 17 14 17 15 17 16 17 17 17 17 16 16 16 15 16"/>
    <polygon points="23 10 23 11 23 12 23 13 23 14 23 15 24 15 24 14 24 13 24 12 24 11 24 10 24 9 24 8 23 8 23 9 23 10"/>
  </g>
</svg>
