<?xml version="1.0" encoding="utf-8"?>
<!-- Generator: Adobe Illustrator 22.1.0, SVG Export Plug-In . SVG Version: 6.00 Build 0)  -->
<svg version="1.1" id="Layer_1" xmlns="http://www.w3.org/2000/svg" xmlns:xlink="http://www.w3.org/1999/xlink" x="0px" y="0px"
	 viewBox="0 0 30 30" style="enable-background:new 0 0 30 30;" xml:space="preserve">
<title>beanies-icon</title>
<g>
	<rect x="17" y="17" width="1" height="1"/>
	<polygon points="15,18 15,17 16,17 17,17 17,16 16,16 15,16 14,16 13,16 13,17 14,17 14,18 14,19 14,20 13,20 13,21 14,21 15,21 
		16,21 16,20 15,20 15,19 16,19 17,19 17,18 16,18 	"/>
	<polygon points="2,2 12,2 12,0 0,0 0,12 2,12 	"/>
	<polygon points="28,28 18,28 18,30 30,30 30,18 28,18 	"/>
	<polygon points="18,0 18,2 28,2 28,12 30,12 30,0 	"/>
	<polygon points="2,18 0,18 0,30 12,30 12,28 2,28 	"/>
	<polygon points="8,13 8,12 7,12 7,13 7,14 8,14 	"/>
	<rect x="8" y="11" width="1" height="1"/>
	<polygon points="11,11 11,10 10,10 9,10 9,11 10,11 	"/>
	<rect x="21" y="11" width="1" height="1"/>
	<polygon points="20,11 21,11 21,10 20,10 19,10 19,11 	"/>
	<rect x="11" y="11" width="1" height="1"/>
	<polygon points="12,11 13,11 13,10 14,10 15,10 16,10 17,10 17,11 18,11 18,10 19,10 19,9 18,9 18,8 17,8 17,9 16,9 16,8 15,8 
		14,8 14,9 13,9 13,8 12,8 12,9 11,9 11,10 12,10 	"/>
	<rect x="18" y="11" width="1" height="1"/>
	<polygon points="22,14 23,14 23,13 23,12 22,12 22,13 	"/>
	<rect x="11" y="7" width="1" height="1"/>
	<rect x="13" y="7" width="1" height="1"/>
	<rect x="12" y="6" width="1" height="1"/>
	<rect x="11" y="5" width="1" height="1"/>
	<rect x="16" y="7" width="1" height="1"/>
	<polygon points="14,6 14,7 16,7 16,6 	"/>
	<rect x="13" y="5" width="1" height="1"/>
	<rect x="13" y="3" width="1" height="1"/>
	<rect x="12" y="4" width="1" height="1"/>
	<polygon points="15,5 16,5 16,4 15,4 14,4 14,5 	"/>
	<rect x="17" y="6" width="1" height="1"/>
	<rect x="18" y="7" width="1" height="1"/>
	<rect x="18" y="5" width="1" height="1"/>
	<rect x="16" y="5" width="1" height="1"/>
	<rect x="16" y="3" width="1" height="1"/>
	<rect x="17" y="4" width="1" height="1"/>
	<path d="M19,26h5V14h-1v8h-3V12h-1v10h-8V12h-1v10H7v-8H6v12H19z M21,23h2v2h-3v-2H21z M9,25H7v-2h3v2H9z M17,25h-6v-2h8v2H17z"/>
</g>
</svg>
