<svg xmlns="http://www.w3.org/2000/svg" width="30" height="30" viewBox="0 0 30 30">
  <title>blog-icon</title>
  <g>
    <polygon points="2 2 12 2 12 0 0 0 0 12 2 12 2 2"/>
    <polygon points="28 28 18 28 18 30 30 30 30 18 28 18 28 28"/>
    <polygon points="18 0 18 2 28 2 28 12 30 12 30 0 18 0"/>
    <polygon points="2 18 0 18 0 30 12 30 12 28 2 28 2 18"/>
    <polygon points="12 7 12 6 11 6 10 6 10 7 11 7 12 7"/>
    <polygon points="14 6 14 5 13 5 12 5 12 6 13 6 14 6"/>
    <polygon points="16 5 16 4 15 4 14 4 14 5 15 5 16 5"/>
    <polygon points="17 6 18 6 18 5 17 5 16 5 16 6 17 6"/>
    <polygon points="13 13 12 13 12 14 13 14 14 14 14 13 13 13"/>
    <polygon points="16 13 16 14 17 14 18 14 18 13 17 13 16 13"/>
    <polygon points="19 7 20 7 20 6 19 6 18 6 18 7 19 7"/>
    <polygon points="21 8 22 8 22 7 21 7 20 7 20 8 21 8"/>
    <polygon points="23 9 24 9 24 8 23 8 22 8 22 9 23 9"/>
    <polygon points="11 12 10 12 10 13 11 13 12 13 12 12 11 12"/>
    <polygon points="18 12 18 13 19 13 20 13 20 12 19 12 18 12"/>
    <polygon points="10 8 10 7 9 7 8 7 8 8 9 8 10 8"/>
    <polygon points="20 11 20 12 21 12 22 12 22 11 21 11 20 11"/>
    <polygon points="9 11 8 11 8 12 9 12 10 12 10 11 9 11"/>
    <polygon points="8 14 7 14 7 15 7 16 8 16 8 17 9 17 9 16 9 15 8 15 8 14"/>
    <polygon points="13 22 13 21 13 20 12 20 12 19 11 19 11 20 11 21 12 21 12 22 13 22"/>
    <polygon points="16 8 16 7 15 7 14 7 14 8 15 8 16 8"/>
    <polygon points="16 10 16 9 15 9 14 9 14 10 15 10 16 10"/>
    <polygon points="16 12 16 11 15 11 14 11 14 12 15 12 16 12"/>
    <polygon points="17 22 18 22 18 21 18 20 17 20 17 21 16 21 16 22 16 23 17 23 17 22"/>
    <polygon points="17 18 18 18 18 17 18 16 17 16 17 17 16 17 16 18 16 19 17 19 17 18"/>
    <polygon points="22 19 23 19 23 18 23 17 22 17 22 18 21 18 21 19 21 20 22 20 22 19"/>
    <polygon points="22 15 23 15 23 14 23 13 22 13 22 14 21 14 21 15 21 16 22 16 22 15"/>
    <polygon points="8 9 8 8 7 8 6 8 6 9 7 9 8 9"/>
    <polygon points="6 19 6 18 6 17 6 16 6 15 6 14 6 13 6 12 6 11 7 11 8 11 8 10 7 10 6 10 6 9 5 9 5 10 5 11 5 12 5 13 5 14 5 15 5 16 5 17 5 18 5 19 5 20 5 21 6 21 6 20 6 19"/>
    <polygon points="15 23 15 22 15 21 15 20 15 19 15 18 15 17 15 16 15 15 16 15 16 14 15 14 14 14 14 15 14 16 14 17 14 18 14 19 14 20 14 21 14 22 14 23 14 24 13 24 12 24 12 25 13 25 14 25 14 26 15 26 16 26 16 25 15 25 15 23"/>
    <polygon points="23 10 22 10 22 11 23 11 24 11 24 12 24 13 24 14 24 15 24 16 24 17 24 18 24 19 24 20 24 21 25 21 25 20 25 19 25 18 25 17 25 16 25 15 25 14 25 13 25 12 25 11 25 10 25 9 24 9 24 10 23 10"/>
    <polygon points="18 24 17 24 16 24 16 25 17 25 18 25 18 24"/>
    <polygon points="11 23 10 23 10 24 11 24 12 24 12 23 11 23"/>
    <polygon points="18 23 18 24 19 24 20 24 20 23 19 23 18 23"/>
    <polygon points="20 22 20 23 21 23 22 23 22 22 21 22 20 22"/>
    <polygon points="9 22 8 22 8 23 9 23 10 23 10 22 9 22"/>
    <polygon points="22 21 22 22 23 22 24 22 24 21 23 21 22 21"/>
    <polygon points="7 21 6 21 6 22 7 22 8 22 8 21 7 21"/>
  </g>
</svg>
