<svg xmlns="http://www.w3.org/2000/svg" width="30" height="30" viewBox="0 0 30 30">
  <title>caps-icon</title>
  <g>
    <rect x="14" y="16" width="1" height="1"/>
    <polygon points="12 17 12 16 13 16 14 16 14 15 13 15 12 15 11 15 10 15 10 16 11 16 11 17 11 18 11 19 10 19 10 20 11 20 12 20 13 20 13 19 12 19 12 18 13 18 14 18 14 17 13 17 12 17"/>
    <polygon points="2 2 12 2 12 0 0 0 0 12 2 12 2 2"/>
    <polygon points="28 28 18 28 18 30 30 30 30 18 28 18 28 28"/>
    <polygon points="18 0 18 2 28 2 28 12 30 12 30 0 18 0"/>
    <polygon points="2 18 0 18 0 30 12 30 12 28 2 28 2 18"/>
    <polygon points="5 13 5 12 4 12 4 13 4 14 5 14 5 13"/>
    <rect x="5" y="11" width="1" height="1"/>
    <polygon points="8 11 8 10 7 10 6 10 6 11 7 11 8 11"/>
    <polygon points="10 10 10 11 11 11 11 10 12 10 13 10 14 10 14 11 15 11 15 10 16 10 16 9 15 9 14 9 13 9 13 8 12 8 11 8 11 9 10 9 9 9 8 9 8 10 9 10 10 10"/>
    <rect x="18" y="11" width="1" height="1"/>
    <polygon points="17 11 18 11 18 10 17 10 16 10 16 11 17 11"/>
    <rect x="9" y="11" width="1" height="1"/>
    <rect x="15" y="11" width="1" height="1"/>
    <polygon points="19 14 20 14 20 13 20 12 19 12 19 13 19 14"/>
    <polygon points="20 16 20 17 20 18 20 19 20 20 21 20 22 20 23 20 24 20 25 20 26 20 26 19 25 19 24 19 23 19 22 19 21 19 21 18 21 17 21 16 21 15 21 14 20 14 20 15 20 16"/>
    <polygon points="19 22 20 22 21 22 22 22 23 22 24 22 25 22 26 22 26 21 25 21 24 21 23 21 22 21 21 21 20 21 20 20 19 20 19 21 18 21 17 21 17 20 17 19 17 18 17 17 17 16 17 15 17 14 17 13 17 12 16 12 16 13 16 14 16 15 16 16 16 17 16 18 16 19 16 20 16 21 15 21 14 21 13 21 12 21 11 21 10 21 9 21 9 20 9 19 9 18 9 17 9 16 9 15 9 14 9 13 9 12 8 12 8 13 8 14 8 15 8 16 8 17 8 18 8 19 8 20 8 21 7 21 7 20 7 19 6 19 6 20 5 20 4 20 4 19 5 19 6 19 6 18 5 18 4 18 4 17 4 16 4 15 4 14 3 14 3 15 3 16 3 17 3 18 3 19 3 20 3 21 3 22 4 22 5 22 6 22 7 22 8 22 9 22 10 22 11 22 12 22 13 22 14 22 15 22 16 22 17 22 18 22 19 22"/>
    <rect x="26" y="20" width="1" height="1"/>
  </g>
</svg>
