<svg xmlns="http://www.w3.org/2000/svg" width="30" height="30" viewBox="0 0 30 30">
  <title>cart2</title>
  <g>
    <polygon points="2 2 12 2 12 0 2 0 0 0 0 2 0 12 2 12 2 2"/>
    <polygon points="28 12 30 12 30 2 30 0 28 0 18 0 18 2 28 2 28 12"/>
    <polygon points="2 18 0 18 0 28 0 30 2 30 12 30 12 28 2 28 2 18"/>
    <polygon points="28 28 18 28 18 30 28 30 30 30 30 28 30 18 28 18 28 28"/>
    <polygon points="24 14 24 8 22 8 22 14 22 16 22 22 24 22 24 16 30 16 30 14 24 14"/>
    <polygon points="22 6 16 6 16 0 14 0 14 6 8 6 8 8 22 8 22 6"/>
    <polygon points="8 24 14 24 14 30 16 30 16 24 22 24 22 22 8 22 8 24"/>
    <polygon points="8 14 8 8 6 8 6 14 0 14 0 16 6 16 6 22 8 22 8 16 8 14"/>
  </g>
</svg>
