<svg xmlns="http://www.w3.org/2000/svg" width="188" height="16" viewBox="0 0 188 16">
  <title>checkout_svg</title>
  <g>
    <rect x="160" width="4" height="12"/>
    <rect x="144" width="4" height="12"/>
    <rect x="148" y="12" width="12" height="4"/>
    <rect x="136" y="4" width="4" height="8"/>
    <rect x="120" y="4" width="4" height="8"/>
    <rect x="124" width="12" height="4"/>
    <rect x="124" y="12" width="12" height="4"/>
    <polygon points="168 0 168 4 176 4 176 16 180 16 180 4 188 4 188 0 168 0"/>
    <polygon points="100 4 100 0 96 0 96 12 96 16 100 16 100 10 112 10 112 6 100 6 100 4"/>
    <rect x="112" width="4" height="6"/>
    <rect x="112" y="10" width="4" height="6"/>
    <polygon points="40 6 28 6 28 0 24 0 24 16 28 16 28 10 40 10 40 16 44 16 44 0 40 0 40 6"/>
    <rect y="4" width="4" height="8"/>
    <rect x="4" width="16" height="4"/>
    <rect x="4" y="12" width="16" height="4"/>
    <rect x="72" y="4" width="4" height="8"/>
    <rect x="76" width="16" height="4"/>
    <rect x="76" y="12" width="16" height="4"/>
    <polygon points="48 12 52 12 52 10 64 10 64 6 52 6 52 4 48 4 48 12"/>
    <rect x="52" width="16" height="4"/>
    <rect x="52" y="12" width="16" height="4"/>
  </g>
</svg>
