<svg xmlns="http://www.w3.org/2000/svg" width="30" height="30" viewBox="0 0 30 30">
  <title>close_icon</title>
  <g>
    <polygon points="2 2 12 2 12 0 0 0 0 12 2 12 2 2"/>
    <polygon points="28 28 18 28 18 30 30 30 30 18 28 18 28 28"/>
    <polygon points="18 0 18 2 28 2 28 12 30 12 30 0 18 0"/>
    <polygon points="2 18 0 18 0 30 12 30 12 28 2 28 2 18"/>
    <polygon points="18 18 18 20 21 20 21 22 26 22 26 20 23 20 23 18 20 18 20 16 18 16 18 14 20 14 20 12 23 12 23 10 26 10 26 8 21 8 21 10 18 10 18 12 16 12 16 14 14 14 14 12 12 12 12 10 9 10 9 8 4 8 4 10 7 10 7 12 10 12 10 14 12 14 12 16 10 16 10 18 7 18 7 20 4 20 4 22 9 22 9 20 12 20 12 18 14 18 14 16 16 16 16 18 18 18"/>
  </g>
</svg>
