<svg xmlns="http://www.w3.org/2000/svg" width="30" height="30" viewBox="0 0 30 30">
  <title>contact-icon_1</title>
  <g>
    <polygon points="2 2 12 2 12 0 0 0 0 12 2 12 2 2"/>
    <polygon points="28 28 18 28 18 30 30 30 30 18 28 18 28 28"/>
    <polygon points="18 0 18 2 28 2 28 12 30 12 30 0 18 0"/>
    <polygon points="2 18 0 18 0 30 12 30 12 28 2 28 2 18"/>
    <polygon points="5 10 4 10 4 12 4 20 5 20 5 12 5 10"/>
    <rect x="6" y="8" width="1" height="1"/>
    <rect x="5" y="9" width="1" height="1"/>
    <rect x="6" y="21" width="1" height="1"/>
    <rect x="5" y="20" width="1" height="1"/>
    <polygon points="10 23 11 23 11 22 7 22 7 23 9 23 9 24 10 24 10 23"/>
    <polygon points="9 24 8 24 8 25 7 25 7 26 13 26 13 25 9 25 9 24"/>
    <rect x="23" y="8" width="1" height="1"/>
    <rect x="24" y="9" width="1" height="1"/>
    <polygon points="11 8 19 8 21 8 23 8 23 7 21 7 19 7 11 7 9 7 7 7 7 8 9 8 11 8"/>
    <polygon points="25 20 26 20 26 14 26 10 25 10 25 14 25 20"/>
    <rect x="23" y="21" width="1" height="1"/>
    <rect x="24" y="20" width="1" height="1"/>
    <rect x="15" y="23" width="1" height="1"/>
    <rect x="13" y="24" width="2" height="1"/>
    <polygon points="16.4 13 19.2 13 22 13 22 12 19.2 12 16.4 12 13.6 12 8 12 8 13 13.6 13 16.4 13"/>
    <polygon points="16.4 16 19.2 16 22 16 22 15 19.2 15 16.4 15 13.6 15 8 15 8 16 13.6 16 16.4 16"/>
    <polygon points="19.2 19 22 19 22 18 19.2 18 16.4 18 13.6 18 8 18 8 19 13.6 19 16.4 19 19.2 19"/>
    <polygon points="21 23 23 23 23 22 21 22 19 22 16 22 16 23 19 23 21 23"/>
  </g>
</svg>
