<svg xmlns="http://www.w3.org/2000/svg" width="30" height="30" viewBox="0 0 30 30">
  <title>facebook-icon</title>
  <g>
    <g>
      <polygon points="2 2 12 2 12 0 0 0 0 12 2 12 2 2"/>
      <polygon points="28 28 18 28 18 30 30 30 30 18 28 18 28 28"/>
      <polygon points="18 0 18 2 28 2 28 12 30 12 30 0 18 0"/>
      <polygon points="2 18 0 18 0 30 12 30 12 28 2 28 2 18"/>
    </g>
    <polygon points="17 26 17 16 21 16 21 12 17 12 17 8 23 8 23 4 15 4 15 6 13 6 13 12 9 12 9 16 13 16 13 26 17 26"/>
  </g>
</svg>
