<svg xmlns="http://www.w3.org/2000/svg" width="30" height="30" viewBox="0 0 30 30">
  <title>que</title>
  <g>
    <polygon points="2 2 12 2 12 0 0 0 0 12 2 12 2 2"/>
    <polygon points="28 28 18 28 18 30 30 30 30 18 28 18 28 28"/>
    <polygon points="18 0 18 2 28 2 28 12 30 12 30 0 18 0"/>
    <polygon points="2 18 0 18 0 30 12 30 12 28 2 28 2 18"/>
    <rect x="5" y="12" width="1" height="6"/>
    <rect x="6" y="10" width="1" height="2"/>
    <rect x="7" y="8" width="1" height="2"/>
    <rect x="6" y="18" width="1" height="2"/>
    <rect x="7" y="20" width="1" height="2"/>
    <rect x="24" y="12" width="1" height="6"/>
    <rect x="23" y="10" width="1" height="2"/>
    <rect x="22" y="8" width="1" height="2"/>
    <rect x="23" y="18" width="1" height="2"/>
    <rect x="22" y="20" width="1" height="2"/>
    <rect x="8" y="7" width="2" height="1"/>
    <rect x="20" y="7" width="2" height="1"/>
    <rect x="10" y="6" width="2" height="1"/>
    <rect x="18" y="6" width="2" height="1"/>
    <rect x="12" y="5" width="6" height="1"/>
    <rect x="8" y="22" width="2" height="1"/>
    <rect x="20" y="22" width="2" height="1"/>
    <rect x="10" y="23" width="2" height="1"/>
    <rect x="18" y="23" width="2" height="1"/>
    <rect x="12" y="24" width="6" height="1"/>
    <polygon points="19 16 19 15 20 15 20 14 20 13 20 12 20 11 19 11 19 10 18 10 18 9 17 9 16 9 15 9 14 9 13 9 12 9 12 10 11 10 11 11 10 11 10 12 10 13 10 14 11 14 12 14 12 13 12 12 13 12 13 11 14 11 15 11 16 11 17 11 17 12 18 12 18 13 18 14 17 14 17 15 16 15 15 15 15 16 14 16 14 17 14 18 14 19 15 19 16 19 16 18 16 17 17 17 17 16 18 16 19 16"/>
    <polygon points="14 20 14 21 14 22 15 22 16 22 16 21 16 20 15 20 14 20"/>
  </g>
</svg>
