<svg xmlns="http://www.w3.org/2000/svg" width="30" height="30" viewBox="0 0 30 30">
  <title>hoodies-icon</title>
  <g>
    <rect x="17" y="14" width="1" height="1"/>
    <polygon points="15 15 15 14 16 14 17 14 17 13 16 13 15 13 14 13 13 13 13 14 14 14 14 15 14 16 14 17 13 17 13 18 14 18 15 18 16 18 16 17 15 17 15 16 16 16 17 16 17 15 16 15 15 15"/>
    <polygon points="2 2 12 2 12 0 0 0 0 12 2 12 2 2"/>
    <polygon points="28 28 18 28 18 30 30 30 30 18 28 18 28 28"/>
    <polygon points="18 0 18 2 28 2 28 12 30 12 30 0 18 0"/>
    <polygon points="2 18 0 18 0 30 12 30 12 28 2 28 2 18"/>
    <polygon points="6 13 6 12 5 12 5 13 5 14 6 14 6 13"/>
    <rect x="6" y="11" width="1" height="1"/>
    <polygon points="9 11 9 10 8 10 7 10 7 11 8 11 9 11"/>
    <polygon points="11 10 12 10 12 9 11 9 11 8 11 7 11 6 11 5 10 5 10 6 10 7 10 8 10 9 9 9 9 10 10 10 11 10"/>
    <polygon points="14 10 14 11 15 11 16 11 16 10 15 10 14 10"/>
    <rect x="23" y="11" width="1" height="1"/>
    <polygon points="22 11 23 11 23 10 22 10 21 10 21 11 22 11"/>
    <rect x="9" y="13" width="1" height="1"/>
    <rect x="20" y="13" width="1" height="1"/>
    <polygon points="24 14 25 14 25 13 25 12 24 12 24 13 24 14"/>
    <rect x="11" y="21" width="1" height="1"/>
    <rect x="18" y="21" width="1" height="1"/>
    <polygon points="14 21 15 21 16 21 17 21 18 21 18 20 17 20 16 20 15 20 14 20 13 20 12 20 12 21 13 21 14 21"/>
    <rect x="11" y="4" width="1" height="1"/>
    <rect x="18" y="4" width="1" height="1"/>
    <rect x="12" y="3" width="1" height="1"/>
    <rect x="17" y="3" width="1" height="1"/>
    <polygon points="15 3 16 3 17 3 17 2 16 2 15 2 14 2 13 2 13 3 14 3 15 3"/>
    <rect x="13" y="5" width="1" height="1"/>
    <polygon points="16 5 16 4 15 4 14 4 14 5 15 5 16 5"/>
    <polygon points="13 7 13 6 12 6 12 7 12 8 13 8 13 7"/>
    <polygon points="14 8 13 8 13 9 13 10 14 10 14 9 14 8"/>
    <polygon points="19 7 19 8 19 9 18 9 18 10 19 10 20 10 21 10 21 9 20 9 20 8 20 7 20 6 20 5 19 5 19 6 19 7"/>
    <rect x="16" y="5" width="1" height="1"/>
    <polygon points="17 8 18 8 18 7 18 6 17 6 17 7 17 8"/>
    <polygon points="16 9 16 10 17 10 17 9 17 8 16 8 16 9"/>
    <path d="M19,27h2V25h1v1h3V24h1V14H25v9H22V14H21V24H20V22H19v2H11V22H10v2H9V14H8v9H5V14H4V24H5v2H8V25H9v2H19Zm5-3v1H23V24ZM6,25V24H7v1Zm11,1H10V25H20v1H17Z"/>
  </g>
</svg>
