<svg xmlns="http://www.w3.org/2000/svg" width="30" height="30" viewBox="0 0 30 30">
  <title>instagram-icon</title>
  <g>
    <g>
      <polygon points="2 2 12 2 12 0 0 0 0 12 2 12 2 2"/>
      <polygon points="28 28 18 28 18 30 30 30 30 18 28 18 28 28"/>
      <polygon points="18 0 18 2 28 2 28 12 30 12 30 0 18 0"/>
      <polygon points="2 18 0 18 0 30 12 30 12 28 2 28 2 18"/>
    </g>
    <g>
      <polygon points="23 11 23 13 23 15 23 17 23 19 23 21 23 22 23 23 25 23 25 22 25 21 25 19 25 17 25 15 25 13 25 11 25 9 25 7 23 7 23 9 23 11"/>
      <polygon points="11 7 13 7 15 7 17 7 19 7 21 7 21.922 7 23 7 23 5 21.922 5 21 5 19 5 17 5 15 5 13 5 11 5 9 5 7 5 7 7 9 7 11 7"/>
      <polygon points="21 23 19 23 17 23 15 23 13 23 11 23 9 23 7 23 7 25 9 25 11 25 13 25 15 25 17 25 19 25 21 25 21.922 25 23 25 23 23 21.922 23 21 23"/>
      <polygon points="7 21.426 7 21 7 19 7 17 7 15 7 13 7 11 7 9 7 7 5 7 5 9 5 11 5 13 5 15 5 17 5 19 5 21 5 21.426 5 23 7 23 7 21.426"/>
      <rect x="19" y="9" width="2" height="2"/>
      <path d="M11,18.00024h1v1h1v1h4v-1h1v-1h1v-1h1v-4H19v-1H18v-1H17v-1H13v1H12v1H11v1H10v4h1Zm1-5h1v-1h4v1h1v4H17v1H13v-1H12Z"/>
    </g>
  </g>
</svg>
