<svg xmlns="http://www.w3.org/2000/svg" width="30" height="30" viewBox="0 0 30 30">
  <title>legal-icon</title>
  <g>
    <polygon points="2 2 12 2 12 0 0 0 0 12 2 12 2 2"/>
    <polygon points="28 28 18 28 18 30 30 30 30 18 28 18 28 28"/>
    <polygon points="18 0 18 2 28 2 28 12 30 12 30 0 18 0"/>
    <polygon points="2 18 0 18 0 30 12 30 12 28 2 28 2 18"/>
    <polygon points="19 26 20 26 20 25 19 25 19 24 18 24 18 25 17 25 17 24 16 24 16 25 15 25 14 25 14 24 13 24 13 25 12 25 12 24 11 24 11 25 10 25 10 26 11 26 12 26 13 26 14 26 15 26 16 26 17 26 18 26 19 26"/>
    <rect x="12" y="23" width="1" height="1"/>
    <path d="M14,24h2V23h1V22H16V21h0V9h1V8h5V9h2V7H17V5H16V6H14V5H13V7H6V9H8V8h5V9h1V21h0v1H13v1h1ZM14,7h2V8H14Z"/>
    <polygon points="6 11 6 10 6 9 5 9 5 10 5 11 5 12 6 12 6 11"/>
    <polygon points="9 14 8 14 7 14 6 14 5 14 5 13 5 12 4 12 4 13 4 14 3 14 3 15 4 15 4 16 5 16 5 17 6 17 7 17 8 17 9 17 9 16 10 16 10 15 11 15 11 14 10 14 10 13 10 12 9 12 9 13 9 14"/>
    <polygon points="8 11 8 12 9 12 9 11 9 10 9 9 8 9 8 10 8 11"/>
    <polygon points="22 11 22 10 22 9 21 9 21 10 21 11 21 12 22 12 22 11"/>
    <polygon points="25 14 24 14 23 14 22 14 21 14 21 13 21 12 20 12 20 13 20 14 19 14 19 15 20 15 20 16 21 16 21 17 22 17 23 17 24 17 25 17 25 16 26 16 26 15 27 15 27 14 26 14 26 13 26 12 25 12 25 13 25 14"/>
    <polygon points="24 11 24 12 25 12 25 11 25 10 25 9 24 9 24 10 24 11"/>
    <rect x="4" y="7" width="1" height="1"/>
    <rect x="25" y="7" width="1" height="1"/>
    <polygon points="16 5 16 4 15 4 14 4 14 5 15 5 16 5"/>
    <rect x="17" y="23" width="1" height="1"/>
  </g>
</svg>
