<svg xmlns="http://www.w3.org/2000/svg" width="30" height="30" viewBox="0 0 30 30">
  <title>login_icon</title>
  <g>
    <polygon points="2 2 12 2 12 0 0 0 0 12 2 12 2 2"/>
    <polygon points="28 28 18 28 18 30 30 30 30 18 28 18 28 28"/>
    <polygon points="18 0 18 2 28 2 28 12 30 12 30 0 18 0"/>
    <polygon points="2 18 0 18 0 30 12 30 12 28 2 28 2 18"/>
    <polygon points="24 23 6 23 6 21 6 19 4 19 4 21 4 23 4 25 24 25 25 25 26 25 26 23 26 21 26 19 24 19 24 21 24 23"/>
    <rect x="6" y="17" width="4" height="2"/>
    <rect x="20" y="17" width="4" height="2"/>
    <polygon points="14 19 16 19 18 19 18 17 16 17 14 17 12 17 12 19 14 19"/>
    <rect x="10" y="15" width="2" height="2"/>
    <rect x="8" y="9" width="2" height="6"/>
    <rect x="20" y="9" width="2" height="6"/>
    <rect x="18" y="15" width="2" height="2"/>
    <rect x="10" y="7" width="2" height="2"/>
    <rect x="18" y="7" width="2" height="2"/>
    <polygon points="12 7 14 7 16 7 18 7 18 5 16 5 14 5 12 5 12 7"/>
  </g>
</svg>
