<svg xmlns="http://www.w3.org/2000/svg" width="30" height="30" viewBox="0 0 30 30">
  <title>menu_icon</title>
  <g>
    <polygon points="2 2 12 2 12 0 0 0 0 12 2 12 2 2"/>
    <polygon points="28 28 18 28 18 30 30 30 30 18 28 18 28 28"/>
    <polygon points="18 0 18 2 28 2 28 12 30 12 30 0 18 0"/>
    <polygon points="2 28 2 18 0 18 0 30 12 30 12 28 2 28"/>
    <rect x="4" y="8" width="22" height="2"/>
    <rect x="4" y="20" width="22" height="2"/>
    <rect x="4" y="14" width="22" height="2"/>
  </g>
</svg>
