<svg xmlns="http://www.w3.org/2000/svg" width="30" height="30" viewBox="0 0 30 30">
  <title>palmtree-icon</title>
  <g>
    <polygon points="2 2 12 2 12 0 0 0 0 12 2 12 2 2"/>
    <polygon points="28 28 18 28 18 30 30 30 30 18 28 18 28 28"/>
    <polygon points="18 0 18 2 28 2 28 12 30 12 30 0 18 0"/>
    <polygon points="2 18 0 18 0 30 12 30 12 28 2 28 2 18"/>
    <rect x="7" y="12" width="1" height="1"/>
    <rect x="8" y="6" width="1" height="1"/>
    <polygon points="18 17 19 17 19 18 20 18 20 19 21 19 21 20 22 20 22 19.999 22 19.002 22 17 21 17 21 15 20 15 19.999 14 21 14 21 15 22 15 22 16 23 16 23 17 24 17 24 17.997 24 18 25 18 25 17.997 25 17.001 25 16 24 16 24 15 24 14 23 14 23 13 23 12 22 12 22 11 23 11 23 12 24 12 24 13 25 13 25 14 26 14 26 13 26 12 25 12 25 11 25 10 24 10 24 9 23 9 23 8 24 8 24 9 25 9 25 8.001 25 7 24 7 24 6 23 6 23 5 22.001 5 20 5 20 4 19 4 18 4 17 4 17 5 16 5 15 5 15 6.006 15 7 14 7 14 6 13 6 12 6 12 5 10.999 5 10 5 9 5 9 6 10 6 10 7 11 7 11 8 11 9 12 9 12 10 11 10 10.002 10 9 10 9 11 8 11 8 12 9 12 9 13 10 13 11 13 11 14 10 14 10 15 9 15 9 16 8 16 8 17 7 17 7 18 6 18 6 19 5 19 5 21 4 21 4 26 5 26 6 26 7 26 7 25 7 23 8 23.002 8 23 8 21 9 21 9 21 9 19 10 19 10 18 11 18 11 17 12 17 12 16 13 16 13 15 14 15 14 16 14 17 15 17 15 17.996 15 19 16 19 16 20 17 20 17 19.002 17 17.998 17 17 17 16 18 16 18 17"/>
  </g>
</svg>
