<svg xmlns="http://www.w3.org/2000/svg" width="30" height="30" viewBox="0 0 30 30">
  <title>payment-icon</title>
  <g>
    <polygon points="2 2 12 2 12 0 0 0 0 12 2 12 2 2"/>
    <polygon points="28 28 18 28 18 30 30 30 30 18 28 18 28 28"/>
    <polygon points="18 0 18 2 28 2 28 12 30 12 30 0 18 0"/>
    <polygon points="2 18 0 18 0 30 12 30 12 28 2 28 2 18"/>
    <polygon points="11 15 11 14 11 13 11 12 12 12 13 12 14 12 15 12 16 12 17 12 18 12 19 12 20 12 21 12 22 12 23 12 24 12 25 12 25 13 25 14 25 15 25 16 26 16 26 15 26 14 26 13 26 12 26 11 26 10 26 9 26 8 25 8 25 9 25 10 24 10 23 10 22 10 21 10 20 10 19 10 18 10 17 10 16 10 15 10 14 10 13 10 12 10 11 10 11 9 11 8 10 8 10 9 10 10 10 11 10 12 9 12 8 12 8 13 9 13 10 13 10 14 10 15 10 16 10 17 9 17 9 18 10 18 11 18 11 17 12 17 12 16 11 16 11 15"/>
    <rect x="12" y="15" width="1" height="1"/>
    <rect x="13" y="14" width="1" height="1"/>
    <polygon points="15 20 15 19 15 18 15 17 14 17 14 18 13 18 13 19 14 19 14 20 14 21 14 22 15 22 16 22 16 21 15 21 15 20"/>
    <polygon points="18 20 17 20 17 19 17 18 17 17 18 17 18 18 18 19 18 20 19 20 19 19 19 18 19 17 20 17 21 17 22 17 23 17 24 17 25 17 25 16 24 16 23 16 22 16 21 16 20 16 19 16 18 16 17 16 17 15 17 14 16 14 16 15 16 16 15 16 15 17 16 17 16 18 16 19 16 20 16 21 17 21 18 21 18 20"/>
    <polygon points="13 21 13 20 13 19 12 19 12 20 11 20 11 21 12 21 12 22 12 23 13 23 14 23 14 22 13 22 13 21"/>
    <rect x="10" y="21" width="1" height="1"/>
    <polygon points="8 22 8 23 9 23 10 23 10 22 9 22 8 22"/>
    <polygon points="6 23 6 24 7 24 8 24 8 23 7 23 6 23"/>
    <polygon points="4 24 4 25 5 25 6 25 6 24 5 24 4 24"/>
    <polygon points="15 13 14 13 14 14 15 14 16 14 16 13 15 13"/>
    <rect x="6" y="14" width="1" height="1"/>
    <rect x="7" y="13" width="1" height="1"/>
    <rect x="5" y="15" width="1" height="1"/>
    <rect x="4" y="16" width="1" height="1"/>
    <polygon points="13 8 14 8 15 8 16 8 17 8 18 8 19 8 20 8 21 8 22 8 23 8 24 8 25 8 25 7 24 7 23 7 22 7 21 7 20 7 19 7 18 7 17 7 16 7 15 7 14 7 13 7 12 7 11 7 11 8 12 8 13 8"/>
    <rect x="23" y="14" width="1" height="1"/>
    <rect x="21" y="14" width="1" height="1"/>
  </g>
</svg>
