<svg xmlns="http://www.w3.org/2000/svg" width="30" height="30" viewBox="0 0 30 30">
  <title>pinterest-icon</title>
  <g>
    <polygon points="2 2 12 2 12 0 0 0 0 12 2 12 2 2"/>
    <polygon points="28 28 18 28 18 30 30 30 30 18 28 18 28 28"/>
    <polygon points="18 0 18 2 28 2 28 12 30 12 30 0 18 0"/>
    <polygon points="2 18 0 18 0 30 12 30 12 28 2 28 2 18"/>
    <polygon points="20 18 20 16 22 16 22 14 24 14 24 12 24 10 24 8 22 8 22 6 20 6 20 4 18 4 16 4 14 4 12 4 10 4 10 6 8 6 8 8 6 8 6 10 6 11 6 12 6 13 8 13 8 14 8 15 10 15 10 14 10 13 10 12 10 11 10 10 10 9 10 8 12 8 12 6 14 6 16 6 18 6 18 8 20 8 20 10 20 12 20 14 18 14 18 16 16 16 16 15 16 14 16 13 16 11 16 10 16 9 16 8 14 8 14 9 14 10 12 10 12 12 14 12 14 13 14 14 12 14 12 15 12 16 12 17 12 19 10 19 10 20 10 21 10 22 10 24 10 26 12 26 12 24 12 22 14 22 14 21 14 20 14 19 14 18 16 18 18 18 20 18"/>
  </g>
</svg>
