<svg xmlns="http://www.w3.org/2000/svg" width="270" height="36" viewBox="0 0 270 36">
  <title>pixelpalm-logo</title>
  <g>
    <polygon points="30 3 33 3 33 33 30 33 30 36 45 36 45 33 42 33 42 3 45 3 45 0 30 0 30 3"/>
    <rect x="66" y="9" width="3" height="6"/>
    <polygon points="66 3 69 3 69 9 72 9 72 3 75 3 75 0 66 0 66 3"/>
    <rect x="54" y="21" width="3" height="6"/>
    <polygon points="63 9 60 9 60 3 63 3 63 0 48 0 48 3 51 3 51 9 54 9 54 15 57 15 57 21 60 21 60 27 63 27 63 33 60 33 60 36 75 36 75 33 72 33 72 27 69 27 69 21 66 21 66 15 63 15 63 9"/>
    <polygon points="51 33 48 33 48 36 57 36 57 33 54 33 54 27 51 27 51 33"/>
    <path d="M24,0H0V3H3V33H0v3H15V33H12V27H24V24h3V3H24ZM18,24H12V3h6Z"/>
    <path d="M162,3h-3V0H135V3h3V33h-3v3h15V33h-3V27h12V24h3Zm-9,21h-6V3h6Z"/>
    <polygon points="129 30 126 30 126 33 120 33 120 3 123 3 123 0 108 0 108 3 111 3 111 33 108 33 108 36 132 36 132 27 129 27 129 30"/>
    <polygon points="213 30 210 30 210 33 204 33 204 3 207 3 207 0 192 0 192 3 195 3 195 33 192 33 192 36 216 36 216 27 213 27 213 30"/>
    <polygon points="237 12 234 12 234 0 219 0 219 3 222 3 222 33 219 33 219 36 228 36 228 33 225 33 225 12 228 12 228 24 231 24 231 36 240 36 240 24 237 24 237 12"/>
    <polygon points="240 3 243 3 243 12 246 12 246 33 243 33 243 36 258 36 258 33 255 33 255 3 258 3 258 0 240 0 240 3"/>
    <rect x="240" y="11.99951" width="3" height="12.00049"/>
    <polygon points="186 24 183 24 183 12 180 12 180 0 171 0 171 12 174 12 174 24 171 24 171 12 168 12 168 24 165 24 165 33 162 33 162 36 171 36 171 33 168 33 168 27 177 27 177 33 174 33 174 36 189 36 189 33 186 33 186 24"/>
    <polygon points="78 3 81 3 81 33 78 33 78 36 105 36 105 27 102 27 102 30 99 30 99 33 90 33 90 18 93 18 93 21 96 21 96 24 99 24 99 12 96 12 96 15 90 15 90 3 99 3 99 6 102 6 102 9 105 9 105 0 78 0 78 3"/>
    <polygon points="267 1 268 1 268 0 267 0 265 0 264 0 264 1 265 1 267 1"/>
    <polygon points="265 7 264 7 264 8 265 8 267 8 268 8 268 7 267 7 265 7"/>
    <rect x="269" y="2" width="1" height="4"/>
    <rect x="262" y="2" width="1" height="4"/>
    <rect x="263" y="1" width="1" height="1"/>
    <rect x="268" y="1" width="1" height="1"/>
    <rect x="268" y="6" width="1" height="1"/>
    <rect x="263" y="6" width="1" height="1"/>
    <rect x="267" y="3" width="1" height="1"/>
    <polygon points="264 5 264 6 265 6 265 5 266 5 267 5 267 4 265 4 265 3 267 3 267 2 265 2 264 2 264 4 264 5"/>
    <rect x="267" y="5" width="1" height="1"/>
  </g>
</svg>
