<svg xmlns="http://www.w3.org/2000/svg" width="30" height="30" viewBox="0 0 30 30">
  <title>policies-icon</title>
  <g>
    <polygon points="2 2 12 2 12 0 0 0 0 12 2 12 2 2"/>
    <polygon points="28 28 18 28 18 30 30 30 30 18 28 18 28 28"/>
    <polygon points="18 0 18 2 28 2 28 12 30 12 30 0 18 0"/>
    <polygon points="2 18 0 18 0 30 12 30 12 28 2 28 2 18"/>
    <rect x="22" y="5" width="1" height="1"/>
    <path d="M19,27h6V7H24V6H23V7H21V5h1V4H21V3H5V27H19Zm-2-1H6V4H20V8h4V26H17Z"/>
    <polygon points="11 14 12 14 13 14 14 14 15 14 16 14 17 14 18 14 19 14 20 14 21 14 22 14 23 14 23 13 22 13 21 13 20 13 19 13 18 13 17 13 16 13 15 13 14 13 13 13 12 13 11 13 10 13 9 13 9 14 10 14 11 14"/>
    <rect x="7" y="13" width="1" height="1"/>
    <polygon points="16 16 17 16 18 16 19 16 20 16 21 16 22 16 23 16 23 15 22 15 21 15 20 15 19 15 18 15 17 15 16 15 15 15 14 15 13 15 12 15 11 15 10 15 9 15 9 16 10 16 11 16 12 16 13 16 14 16 15 16 16 16"/>
    <rect x="7" y="15" width="1" height="1"/>
    <polygon points="18 23 19 23 19 22 20 22 20 21 21 21 21 20 21 19 20 19 20 20 19 20 19 21 18 21 18 20 17 20 17 21 17 22 18 22 18 23"/>
    <polygon points="12 17 11 17 10 17 9 17 9 18 10 18 11 18 12 18 13 18 14 18 14 17 13 17 12 17"/>
    <path d="M19,25h4V17H15v8h4Zm-2-1H16V18h6v6H17Z"/>
    <rect x="7" y="17" width="1" height="1"/>
    <polygon points="12 19 11 19 10 19 9 19 9 20 10 20 11 20 12 20 13 20 14 20 14 19 13 19 12 19"/>
    <rect x="7" y="19" width="1" height="1"/>
    <polygon points="12 21 11 21 10 21 9 21 9 22 10 22 11 22 12 22 13 22 14 22 14 21 13 21 12 21"/>
    <rect x="7" y="21" width="1" height="1"/>
    <polygon points="12 23 11 23 10 23 9 23 9 24 10 24 11 24 12 24 13 24 14 24 14 23 13 23 12 23"/>
    <rect x="7" y="23" width="1" height="1"/>
    <polygon points="11 6 12 6 13 6 14 6 15 6 16 6 17 6 18 6 19 6 19 5 18 5 17 5 16 5 15 5 14 5 13 5 12 5 11 5 10 5 9 5 9 6 10 6 11 6"/>
    <rect x="7" y="5" width="1" height="1"/>
    <polygon points="11 8 12 8 13 8 14 8 15 8 16 8 17 8 18 8 19 8 19 7 18 7 17 7 16 7 15 7 14 7 13 7 12 7 11 7 10 7 9 7 9 8 10 8 11 8"/>
    <rect x="7" y="7" width="1" height="1"/>
    <polygon points="11 10 12 10 13 10 14 10 15 10 16 10 17 10 18 10 19 10 20 10 21 10 22 10 23 10 23 9 22 9 21 9 20 9 19 9 18 9 17 9 16 9 15 9 14 9 13 9 12 9 11 9 10 9 9 9 9 10 10 10 11 10"/>
    <rect x="7" y="9" width="1" height="1"/>
    <polygon points="11 12 12 12 13 12 14 12 15 12 16 12 17 12 18 12 19 12 20 12 21 12 22 12 23 12 23 11 22 11 21 11 20 11 19 11 18 11 17 11 16 11 15 11 14 11 13 11 12 11 11 11 10 11 9 11 9 12 10 12 11 12"/>
    <rect x="7" y="11" width="1" height="1"/>
  </g>
</svg>
