<svg xmlns="http://www.w3.org/2000/svg" width="30" height="30" viewBox="0 0 30 30">
  <title>projects-icon</title>
  <g>
    <polygon points="2 2 12 2 12 0 0 0 0 12 2 12 2 2"/>
    <polygon points="28 28 18 28 18 30 30 30 30 18 28 18 28 28"/>
    <polygon points="18 0 18 2 25 2 25 3 26 3 26 2 28 2 28 12 30 12 30 0 18 0"/>
    <polygon points="2 18 0 18 0 30 12 30 12 28 2 28 2 18"/>
    <rect x="11" y="8" width="1" height="1"/>
    <polygon points="14 8 15 8 16 8 17 8 18 8 18 7 17 7 16 7 15 7 14 7 13 7 12 7 12 8 13 8 14 8"/>
    <polygon points="16 6 16 5 16 4 15 4 14 4 14 5 14 6 15 6 16 6"/>
    <rect x="21" y="6" width="1" height="1"/>
    <rect x="19" y="5" width="1" height="1"/>
    <rect x="17" y="5" width="1" height="1"/>
    <rect x="21" y="4" width="1" height="1"/>
    <rect x="23" y="7" width="1" height="1"/>
    <rect x="23" y="5" width="1" height="1"/>
    <rect x="23" y="3" width="1" height="1"/>
    <rect x="25" y="8" width="1" height="1"/>
    <rect x="25" y="6" width="1" height="1"/>
    <rect x="25" y="4" width="1" height="1"/>
    <rect x="18" y="8" width="1" height="1"/>
    <path d="M19,27h2V26H20V11h1V10H20V9H19v1H11V9H10v1H9v1h1V26H9v1H19Zm-2-1H11V11h8v1H18V25h1v1H17Z"/>
    <path d="M15,20H12v3h3V21h1v2h1V20H15Zm-1,2H13V21h1Z"/>
    <polygon points="15 24 14 24 13 24 12 24 12 25 13 25 14 25 15 25 16 25 17 25 17 24 16 24 15 24"/>
    <polygon points="15 12 14 12 13 12 12 12 12 13 13 13 14 13 14 14 13 14 12 14 12 15 13 15 14 15 15 15 15 14 15 13 16 13 17 13 17 12 16 12 15 12"/>
    <path d="M15,16H12v3h5V16H15Zm-2,2V17h1v1Zm3,0H15V17h1Z"/>
  </g>
</svg>
