<svg xmlns="http://www.w3.org/2000/svg" width="30" height="30" viewBox="0 0 30 30">
  <title>returns-icon</title>
  <g>
    <path d="M18,14H11v1h1v3H11v1h4V18H14V17h4V16h1V15H18Zm-3,2H14V15h2v1Z"/>
    <polygon points="2 2 12 2 12 0 0 0 0 12 2 12 2 2"/>
    <polygon points="28 28 18 28 18 30 30 30 30 18 28 18 28 28"/>
    <polygon points="18 0 18 2 28 2 28 12 30 12 30 0 18 0"/>
    <polygon points="2 18 0 18 0 30 12 30 12 28 2 28 2 18"/>
    <rect x="5" y="12" width="1" height="6"/>
    <rect x="6" y="18" width="1" height="2"/>
    <rect x="7" y="20" width="1" height="2"/>
    <rect x="24" y="12" width="1" height="6"/>
    <rect x="23" y="10" width="1" height="2"/>
    <rect x="22" y="8" width="1" height="2"/>
    <rect x="23" y="18" width="1" height="2"/>
    <rect x="22" y="20" width="1" height="2"/>
    <rect x="20" y="7" width="2" height="1"/>
    <rect x="18" y="6" width="2" height="1"/>
    <polygon points="15 5 15 4 15 3 15 2 14 2 14 3 13 3 13 4 12 4 12 5 11 5 11 6 12 6 12 7 13 7 13 8 14 8 14 9 15 9 15 8 15 7 15 6 18 6 18 5 15 5"/>
    <rect x="8" y="22" width="2" height="1"/>
    <rect x="20" y="22" width="2" height="1"/>
    <rect x="10" y="23" width="2" height="1"/>
    <rect x="18" y="23" width="2" height="1"/>
    <rect x="12" y="24" width="6" height="1"/>
    <path d="M10,12V11H9V21H21V11H20v1Zm10,2.71436V20H10V13H20v1.71436Z"/>
    <rect x="10" y="10" width="10" height="1"/>
  </g>
</svg>
