<svg xmlns="http://www.w3.org/2000/svg" width="30" height="30" viewBox="0 0 30 30">
  <title>search_icon</title>
  <g>
    <polygon points="2 2 12 2 12 0 0 0 0 12 2 12 2 2"/>
    <polygon points="28 28 18 28 18 30 30 30 30 18 28 18 28 28"/>
    <polygon points="18 0 18 2 28 2 28 12 30 12 30 0 18 0"/>
    <polygon points="2 18 0 18 0 30 12 30 12 28 2 28 2 18"/>
    <rect x="8" y="8" width="2" height="2"/>
    <polygon points="14 8 16 8 16 6 14 6 12 6 10 6 10 8 12 8 14 8"/>
    <polygon points="12 18 10 18 10 20 12 20 14 20 16 20 16 18 14 18 12 18"/>
    <rect x="16" y="8" width="2" height="2"/>
    <rect x="8" y="16" width="2" height="2"/>
    <polygon points="8 12 8 10 6 10 6 12 6 14 6 16 8 16 8 14 8 12"/>
    <polygon points="18 14 18 16 20 16 20 14 20 12 20 10 18 10 18 12 18 14"/>
    <polygon points="19 20 19 22 21 22 21 24 24 24 24 21 22 21 22 19 20 19 20 17 18 17 18 16 16 16 16 18 17 18 17 20 19 20"/>
  </g>
</svg>
