<svg xmlns="http://www.w3.org/2000/svg" width="30" height="30" viewBox="0 0 30 30">
  <title>shipping-icon</title>
  <g>
    <rect x="15" y="10" width="1" height="1"/>
    <rect x="11" y="13" width="1" height="1"/>
    <polygon points="14 14 15 14 15 13 15 12 14 12 14 13 14 14"/>
    <rect x="13" y="14" width="1" height="1"/>
    <rect x="6" y="9" width="1" height="1"/>
    <rect x="6" y="11" width="1" height="1"/>
    <rect x="5" y="10" width="1" height="1"/>
    <polygon points="2 2 12 2 12 0 0 0 0 12 2 12 2 2"/>
    <polygon points="28 28 18 28 18 30 30 30 30 18 28 18 28 28"/>
    <polygon points="18 0 18 2 28 2 28 12 30 12 30 0 18 0"/>
    <polygon points="2 18 0 18 0 30 12 30 12 28 2 28 2 18"/>
    <polygon points="19 15 19 16 20 16 21 16 21 15 20 15 19 15"/>
    <rect x="13" y="19" width="1" height="1"/>
    <polygon points="23 11 24 11 24 10 24 9 23 9 23 10 23 11"/>
    <path d="M19,22v1h1V20H19v1H18V9h1v5h6v1h1V13H25V11H24v2H20V9h3V8H18V6H3V22H5V21H4V18H17v1H15v1h2v1H11V20H10v3h1V22h8Zm-3-5H9V14h1V12h2v1h1V12h1V11H13V10h2V9H13V8H11V9H10V8H7V9H8v1H7v1H9v1H8v2H7v2H6v1H4V7H17V17Z"/>
    <polygon points="9 20 10 20 10 19 9 19 8 19 7 19 7 20 8 20 9 20"/>
    <polygon points="8 23 7 23 7 24 8 24 9 24 10 24 10 23 9 23 8 23"/>
    <rect x="8" y="21" width="1" height="1"/>
    <polygon points="7 21 7 20 6 20 6 21 6 22 6 23 7 23 7 22 7 21"/>
    <polygon points="23 22 23 23 24 23 24 22 24 21 24 20 23 20 23 21 23 22"/>
    <polygon points="22 20 23 20 23 19 22 19 21 19 20 19 20 20 21 20 22 20"/>
    <polygon points="21 23 20 23 20 24 21 24 22 24 23 24 23 23 22 23 21 23"/>
    <rect x="21" y="21" width="1" height="1"/>
    <polygon points="25 16 24 16 24 17 24 18 25 18 25 17 26 17 26 18 25 18 25 19 26 19 26 20 26 21 25 21 25 22 26 22 27 22 27 21 27 20 27 19 27 18 27 17 27 16 27 15 26 15 26 16 25 16"/>
  </g>
</svg>
