<svg xmlns="http://www.w3.org/2000/svg" width="30" height="30" viewBox="0 0 30 30">
  <title>sweat</title>
  <g>
    <polygon points="2 2 12 2 12 0 0 0 0 12 2 12 2 2"/>
    <polygon points="28 28 18 28 18 30 30 30 30 18 28 18 28 28"/>
    <polygon points="18 0 18 2 28 2 28 12 30 12 30 0 18 0"/>
    <polygon points="2 18 0 18 0 30 12 30 12 28 2 28 2 18"/>
    <rect x="6" y="8" width="1" height="1"/>
    <rect x="7" y="7" width="1" height="1"/>
    <polygon points="10 7 10 6 9 6 8 6 8 7 9 7 10 7"/>
    <polygon points="12 6 12 7 13 7 13 6 14 6 15 6 16 6 17 6 17 7 18 7 18 6 19 6 20 6 20 5 19 5 18 5 17 5 16 5 15 5 14 5 13 5 12 5 11 5 10 5 10 6 11 6 12 6"/>
    <polygon points="15 7 14 7 13 7 13 8 14 8 15 8 16 8 17 8 17 7 16 7 15 7"/>
    <polygon points="21 7 22 7 22 6 21 6 20 6 20 7 21 7"/>
    <rect x="22" y="7" width="1" height="1"/>
    <rect x="23" y="8" width="1" height="1"/>
    <polygon points="6 10 6 9 5 9 5 10 5 11 6 11 6 10"/>
    <polygon points="24 11 25 11 25 10 25 9 24 9 24 10 24 11"/>
    <path d="M25,13v9H22V12H21V24h1v1h3V23h1V11H25v2ZM24,24H23V23h1Z"/>
    <rect x="20" y="11" width="1" height="1"/>
    <rect x="9" y="11" width="1" height="1"/>
    <rect x="17" y="12" width="1" height="1"/>
    <polygon points="15 16 16 16 16 15 15 15 15 14 16 14 17 14 17 13 16 13 15 13 15 12 16 12 17 12 17 11 16 11 15 11 14 11 13 11 13 12 14 12 14 13 14 14 14 15 13 15 13 16 14 16 15 16"/>
    <path d="M9,20V12H8V22H5V11H4V23H5v2H8V24H9V20ZM7,24H6V23H7Z"/>
    <path d="M19,26h2V23H9v3H19Zm-3-1H10V24H20v1H16Z"/>
  </g>
</svg>
