<?xml version="1.0" encoding="utf-8"?>
<!-- Generator: Adobe Illustrator 22.1.0, SVG Export Plug-In . SVG Version: 6.00 Build 0)  -->
<svg version="1.1" id="Layer_1" xmlns="http://www.w3.org/2000/svg" xmlns:xlink="http://www.w3.org/1999/xlink" x="0px" y="0px"
	 viewBox="0 0 30 30" style="enable-background:new 0 0 30 30;" xml:space="preserve">
<title>t-shirts-icon_1</title>
<g>
	<polygon points="2,2 12,2 12,0 0,0 0,12 2,12 	"/>
	<polygon points="28,28 18,28 18,30 30,30 30,18 28,18 	"/>
	<polygon points="18,0 18,2 28,2 28,12 30,12 30,0 	"/>
	<polygon points="2,18 0,18 0,30 12,30 12,28 2,28 	"/>
	<polygon points="10,8 11,8 11,7 10,7 9,7 8,7 8,8 9,8 	"/>
	<polygon points="7,9 8,9 8,8 7,8 6,8 5,8 5,9 6,9 	"/>
	<polygon points="12,8 13,8 13,7 14,7 15,7 16,7 17,7 17,8 18,8 18,7 19,7 19,6 18,6 17,6 16,6 15,6 14,6 13,6 12,6 11,6 11,7 12,7 
			"/>
	<polygon points="13,8 13,9 14,9 15,9 16,9 17,9 17,8 	"/>
	<polygon points="20,8 21,8 22,8 22,7 21,7 20,7 19,7 19,8 	"/>
	<polygon points="23,9 24,9 25,9 25,8 24,8 23,8 22,8 22,9 	"/>
	<rect x="17" y="13" width="1" height="1"/>
	<polygon points="15,17 16,17 16,16 15,16 15,15 16,15 17,15 17,14 16,14 15,14 15,13 16,13 17,13 17,12 16,12 15,12 14,12 13,12 
		13,13 14,13 14,14 14,15 14,16 13,16 13,17 14,17 	"/>
	<polygon points="19,26 20,26 21,26 22,26 22,25 22,24 22,23 22,22 22,21 22,20 22,19 22,18 22,17 22,16 22,15 23,15 24,15 25,15 
		26,15 27,15 27,14 27,13 27,12 27,11 27,10 27,9 26,9 25,9 25,10 26,10 26,11 26,12 26,13 26,14 25,14 24,14 23,14 22,14 22,13 
		21,13 21,14 21,15 21,16 21,17 21,18 21,19 21,20 21,21 21,22 21,23 21,24 21,25 20,25 19,25 18,25 17,25 16,25 15,25 14,25 13,25 
		12,25 11,25 10,25 9,25 9,24 9,23 9,22 9,21 9,20 9,19 9,18 9,17 9,16 9,15 9,14 9,13 8,13 8,14 7,14 6,14 5,14 4,14 4,13 4,12 
		4,11 4,10 5,10 5,9 4,9 3,9 3,10 3,11 3,12 3,13 3,14 3,15 4,15 5,15 6,15 7,15 8,15 8,16 8,17 8,18 8,19 8,20 8,21 8,22 8,23 
		8,24 8,25 8,26 9,26 10,26 11,26 12,26 13,26 14,26 15,26 16,26 17,26 18,26 	"/>
</g>
</svg>
