<svg xmlns="http://www.w3.org/2000/svg" width="30" height="30" viewBox="0 0 30 30">
  <title>zza</title>
  <g>
    <polygon points="2 2 12 2 12 0 0 0 0 12 2 12 2 2"/>
    <polygon points="28 28 18 28 18 30 30 30 30 18 28 18 28 28"/>
    <polygon points="18 0 18 2 28 2 28 12 30 12 30 0 18 0"/>
    <polygon points="2 18 0 18 0 30 12 30 12 28 2 28 2 18"/>
    <polygon points="15 8 16 8 16 7 15 7 14 7 14 8 15 8"/>
    <polygon points="11 10 11 9 11 8 11 7 11 6 12 6 12 7 12 8 12 9 12 10 13 10 13 11 14 11 15 11 16 11 17 11 17 10 18 10 18 9 18 8 18 7 18 6 19 6 19 7 19 8 19 9 19 10 19 11 20 11 20 10 20 9 20 8 20 7 20 6 20 5 19 5 18 5 17 5 17 6 16 6 16 7 17 7 17 8 17 9 16 9 16 10 15 10 14 10 14 9 13 9 13 8 13 7 14 7 14 6 13 6 13 5 12 5 11 5 10 5 10 6 10 7 10 8 10 9 10 10 10 11 11 11 11 10"/>
    <rect x="9" y="11" width="1" height="1"/>
    <rect x="20" y="11" width="1" height="1"/>
    <rect x="19" y="13" width="1" height="1"/>
    <polygon points="18 15 19 15 19 14 18 14 18 13 19 13 19 12 18 12 17 12 17 13 17 14 17 15 17 16 18 16 18 15"/>
    <polygon points="19 25 20 25 21 25 22 25 22 24 22 23 22 22 22 21 22 20 22 19 22 18 22 17 22 16 22 15 22 14 22 13 22 12 21 12 21 13 21 14 21 15 21 16 21 17 21 18 21 19 21 20 21 21 21 22 21 23 21 24 20 24 19 24 18 24 17 24 16 24 15 24 14 24 13 24 12 24 11 24 10 24 9 24 9 23 9 22 9 21 9 20 9 19 9 18 9 17 9 16 9 15 9 14 9 13 9 12 8 12 8 13 8 14 8 15 8 16 8 17 8 18 8 19 8 20 8 21 8 22 8 23 8 24 8 25 9 25 10 25 11 25 12 25 13 25 14 25 15 25 16 25 17 25 18 25 19 25"/>
  </g>
</svg>
