<svg xmlns="http://www.w3.org/2000/svg" width="30" height="30" viewBox="0 0 30 30">
  <title>twitter-icon</title>
  <g>
    <g>
      <polygon points="2 2 12 2 12 0 0 0 0 12 2 12 2 2"/>
      <polygon points="28 28 18 28 18 30 30 30 30 18 28 18 28 28"/>
      <polygon points="18 0 18 2 28 2 28 12 30 12 30 0 18 0"/>
      <polygon points="2 18 0 18 0 30 12 30 12 28 2 28 2 18"/>
    </g>
    <polygon points="9 24 11 24 13 24 15 24 17 24 17 22 19 22 19 20 21 20 21 18 21 16 21 14 23 14 25 14 25 12 23 12 23 10 21 10 21 8 19 8 17 8 17 10 15 10 15 12 12 12 12 10 11 10 9 10 9 8 7 8 7 6 5 6 5 8 5 10 5 12 5 14 7 14 7 16 9 16 9 18 11 18 11 20 9 20 9 22 7 22 5 22 5 24 7 24 9 24"/>
  </g>
</svg>
